<svg xmlns="http://www.w3.org/2000/svg" viewBox="0 0 720 480">
  <path fill="#0d5eaf" fill-rule="evenodd" d="M0 0h720v53.3H0z"/>
  <path fill="#fff" fill-rule="evenodd" d="M0 53.3h720v53.4H0z"/>
  <path fill="#0d5eaf" fill-rule="evenodd" d="M0 106.7h720V160H0z"/>
  <path fill="#fff" fill-rule="evenodd" d="M0 160h720v53.3H0z"/>
  <path fill="#0d5eaf" d="M0 0h266.7v266.7H0z"/>
  <path fill="#0d5eaf" fill-rule="evenodd" d="M0 213.3h720v53.4H0z"/>
  <path fill="#fff" fill-rule="evenodd" d="M0 266.7h720V320H0z"/>
  <path fill="#0d5eaf" fill-rule="evenodd" d="M0 320h720v53.3H0z"/>
  <path fill="#fff" fill-rule="evenodd" d="M0 373.3h720v53.4H0z"/>
  <g fill="#fff" fill-rule="evenodd" stroke-width="1.3">
    <path d="M106.7 0H160v266.7h-53.3z"/>
    <path d="M0 106.7h266.7V160H0z"/>
  </g>
  <path fill="#0d5eaf" d="M0 426.7h720V480H0z"/>
</svg>
